<svg xmlns="http://www.w3.org/2000/svg" width="64" height="64" viewBox="0 0 64 64" shape-rendering="crispEdges">
  <rect x="28" y="8" width="8" height="8" fill="#00e5d4"/>
  <rect x="20" y="16" width="24" height="8" fill="#00b8aa"/>
  <rect x="16" y="24" width="8" height="8" fill="#00b8aa"/>
  <rect x="40" y="24" width="8" height="8" fill="#00b8aa"/>
  <rect x="12" y="28" width="8" height="8" fill="#00e5d4"/>
  <rect x="44" y="28" width="8" height="8" fill="#00e5d4"/>
  <rect x="16" y="36" width="8" height="8" fill="#00b8aa"/>
  <rect x="40" y="36" width="8" height="8" fill="#00b8aa"/>
  <rect x="20" y="44" width="24" height="8" fill="#00b8aa"/>
  <rect x="28" y="52" width="8" height="8" fill="#00e5d4"/>
  <rect x="28" y="28" width="8" height="8" fill="#20242a"/>
  <rect x="28" y="24" width="8" height="4" fill="#aafcff"/>
  <rect x="36" y="20" width="4" height="4" fill="#f45bd3"/>
  <rect x="44" y="12" width="4" height="4" fill="#f45bd3"/>
  <rect x="48" y="16" width="4" height="4" fill="#f45bd3"/>
  <rect x="48" y="48" width="4" height="4" fill="#6ff7ee"/>
</svg>
